<?xml version="1.0" encoding="utf-8"?>
<!-- Generator: Adobe Illustrator 17.1.0, SVG Export Plug-In . SVG Version: 6.00 Build 0)  -->
<!DOCTYPE svg PUBLIC "-//W3C//DTD SVG 1.1//EN" "http://www.w3.org/Graphics/SVG/1.1/DTD/svg11.dtd">
<svg version="1.1" id="Layer_1" xmlns="http://www.w3.org/2000/svg" xmlns:xlink="http://www.w3.org/1999/xlink" x="0px" y="0px"
	 viewBox="0 0 511 511" enable-background="new 0 0 511 511" xml:space="preserve">
<path fill-rule="evenodd" clip-rule="evenodd" fill="#525252" d="M350,255c0,55-43,96-95,96c-34,0-77-20-91-65c-2-6-4-16-4-18v-25
	c7-56,54-83,95-83C309,160,350,202,350,255z M287,0c10,24,19,49,31,74c3,5,13,5,19,9l76-31l45,45l-30,76c2,6,1,14,6,17
	c23,13,51,22,77,33v64c-25,10-53,18-77,33c-6,3-4,12-6,17l31,76l-45,45l-77-30c-5,2-12,2-16,6c-5,3-6,10-8,15c-9,19-16,41-25,62h-64
	c-10-24-18-51-32-74c-3-6-12-6-19-9l-76,31l-44-45l30-76c-3-6-4-16-10-20c-23-14-49-20-73-30v-64c24-10,51-18,74-32c6-4,6-13,9-20
	L52,97l45-44l76,30c6-3,14-2,18-8c14-23,22-50,32-75H287z"/>
</svg>
