<?xml version="1.0" standalone="no"?><!-- Generator: Adobe Fireworks CS6, Export SVG Extension by Aaron Beall (http://fireworks.abeall.com) . Version: 0.6.1  --><!DOCTYPE svg PUBLIC "-//W3C//DTD SVG 1.1//EN" "http://www.w3.org/Graphics/SVG/1.1/DTD/svg11.dtd"><svg id="icon-checkmark-Page%201" viewBox="0 0 14 12" style="background-color:#ffffff00" version="1.1"	xmlns="http://www.w3.org/2000/svg" xmlns:xlink="http://www.w3.org/1999/xlink" xml:space="preserve"	x="0px" y="0px" width="14px" height="12px">	<defs>		<linearGradient id="gradient1" x1="50%" y1="25.7732%" x2="50%" y2="104.3201%">			<stop stop-color="#59b200" stop-opacity="1" offset="0%"/>			<stop stop-color="#1a6600" stop-opacity="1" offset="100%"/>		</linearGradient>	</defs>	<g id="Layer%201">		<path d="M 13.6719 1.7344 L 12.4531 0.5156 C 12.2813 0.3594 12.0781 0.2656 11.8438 0.2656 C 11.5938 0.2656 11.3906 0.3594 11.2344 0.5156 L 5.3906 6.3906 L 2.7656 3.75 C 2.5938 3.5938 2.3906 3.5 2.1563 3.5 C 1.9063 3.5 1.7031 3.5938 1.5469 3.75 L 0.3281 4.9688 C 0.1563 5.1406 0.0781 5.3438 0.0781 5.5781 C 0.0781 5.8125 0.1563 6.0156 0.3281 6.1719 L 3.5625 9.4063 L 4.7813 10.625 C 4.9375 10.7969 5.1406 10.875 5.375 10.875 C 5.6094 10.875 5.8125 10.7969 5.9844 10.625 L 7.2031 9.4063 L 13.6719 2.9531 C 13.8281 2.7969 13.9219 2.5938 13.9219 2.3438 C 13.9219 2.1094 13.8281 1.9063 13.6719 1.7344 L 13.6719 1.7344 Z" fill="url(#gradient1)"/>	</g></svg>